<?xml version="1.0" encoding="utf-8"?>
<!-- Generator: Adobe Illustrator 25.2.3, SVG Export Plug-In . SVG Version: 6.00 Build 0)  -->
<svg version="1.1" id="Layer_1" xmlns="http://www.w3.org/2000/svg" xmlns:xlink="http://www.w3.org/1999/xlink" x="0px" y="0px"
	 viewBox="0 0 471 566" style="enable-background:new 0 0 471 566;" xml:space="preserve">
<style type="text/css">
	.st0{fill:#00569D;stroke:#00569D;stroke-width:0.57;stroke-miterlimit:22.93;}
	.st1{fill:#FFFFFF;stroke:#025EA4;stroke-width:0.57;stroke-miterlimit:22.9298;}
	.st2{fill-rule:evenodd;clip-rule:evenodd;fill:#FFFFFF;}
	.st3{fill:#E32021;}
	.st4{fill-rule:evenodd;clip-rule:evenodd;fill:#E32021;}
	.st5{fill-rule:evenodd;clip-rule:evenodd;fill:#EA2D31;}
	.st6{fill-rule:evenodd;clip-rule:evenodd;fill:#00569D;}
	.st7{fill:#00569D;}
	.st8{fill:#FFFFFF;}
	.st9{fill-rule:evenodd;clip-rule:evenodd;fill:url(#SVGID_1_);}
	.st10{fill-rule:evenodd;clip-rule:evenodd;fill:#FBBA23;}
	.st11{fill-rule:evenodd;clip-rule:evenodd;fill:url(#SVGID_2_);}
	.st12{fill-rule:evenodd;clip-rule:evenodd;fill:url(#SVGID_3_);}
	.st13{fill-rule:evenodd;clip-rule:evenodd;fill:url(#SVGID_4_);}
	.st14{fill-rule:evenodd;clip-rule:evenodd;fill:url(#SVGID_5_);}
</style>
<circle class="st0" cx="236.8" cy="336.3" r="216"/>
<ellipse class="st1" cx="237.2" cy="335.8" rx="159.7" ry="159.7"/>
<path class="st2" d="M49.7,346.5c3.8,0,6.9-3.1,6.9-6.9s-3.1-6.9-6.9-6.9s-6.9,3.1-6.9,6.9v0C42.8,343.4,45.9,346.5,49.7,346.5z"/>
<path class="st2" d="M49.7,332.4c4,0,7.2,3.2,7.2,7.2c0,4-3.2,7.2-7.2,7.2c-4,0-7.2-3.2-7.2-7.2c0-1.9,0.8-3.7,2.1-5.1
	C46,333.1,47.8,332.4,49.7,332.4z M54.4,334.9c-2.6-2.6-6.8-2.6-9.3,0s-2.6,6.8,0,9.3c2.6,2.6,6.8,2.6,9.3,0
	c1.2-1.2,1.9-2.9,1.9-4.7C56.3,337.8,55.6,336.1,54.4,334.9L54.4,334.9z"/>
<path class="st2" d="M427,346.3c3.8,0,6.9-3.1,6.9-6.9s-3.1-6.9-6.9-6.9s-6.9,3.1-6.9,6.9l0,0C420.1,343.2,423.2,346.2,427,346.3z"
	/>
<path class="st2" d="M427,332.2c4,0,7.2,3.2,7.2,7.2s-3.2,7.2-7.2,7.2c-4,0-7.2-3.2-7.2-7.2c0-1.9,0.8-3.7,2.1-5.1
	C423.3,332.9,425.1,332.2,427,332.2z M431.7,334.7c-2.6-2.6-6.7-2.6-9.3,0c-2.6,2.6-2.6,6.7,0,9.3c2.6,2.6,6.7,2.6,9.3,0
	c1.2-1.2,1.9-2.9,1.9-4.6C433.6,337.6,432.9,335.9,431.7,334.7z"/>
<rect x="131.1" y="258.9" class="st3" width="213.2" height="144.3"/>
<path class="st4" d="M131.1,254.3h217.8v153.5H126.5V254.3H131.1z M339.7,263.5H135.7v135.2h204L339.7,263.5L339.7,263.5z"/>
<path class="st2" d="M131.1,258.9h23.5l189.7,121.6v22.7h-26.4L131.1,282.8V258.9z"/>
<path class="st5" d="M131.1,258.6h23.6l0.1,0.1l189.7,121.6l0.1,0.1v23.2h-26.7h-0.1L130.9,283.1l-0.1-0.1v-24.4L131.1,258.6
	L131.1,258.6z M154.5,259.2h-23.1v23.4l186.7,120.3h26v-22.2L154.5,259.2z"/>
<polygon class="st6" points="166.7,242.3 166.7,226.8 171.4,226.8 174.2,237.4 176.9,226.8 181.6,226.8 181.6,242.3 178.7,242.3 
	178.7,230.1 175.6,242.3 172.6,242.3 169.6,230.1 169.6,242.3 "/>
<polygon class="st6" points="186.5,242.3 186.5,226.8 198,226.8 198,229.4 189.7,229.4 189.7,232.9 197.4,232.9 197.4,235.5 
	189.7,235.5 189.7,239.7 198.3,239.7 198.3,242.3 "/>
<polygon class="st6" points="202.8,242.3 202.8,226.8 205.8,226.8 212.2,237.2 212.2,226.8 215.1,226.8 215.1,242.3 211.9,242.3 
	205.7,232.1 205.7,242.3 "/>
<path class="st6" d="M219.4,237.3l3.1-0.3c0.1,0.9,0.5,1.6,1.1,2.2c0.6,0.5,1.4,0.8,2.2,0.7c0.8,0.1,1.6-0.2,2.3-0.6
	c0.5-0.4,0.8-0.9,0.8-1.5c0-0.3-0.1-0.7-0.3-0.9c-0.3-0.3-0.7-0.6-1.1-0.7c-0.4-0.1-1.2-0.4-2.5-0.7c-1.3-0.2-2.5-0.8-3.5-1.5
	c-0.9-0.8-1.4-1.9-1.4-3.1c0-0.8,0.2-1.6,0.7-2.2c0.5-0.7,1.1-1.2,1.9-1.6c1-0.4,2-0.6,3.1-0.5c1.6-0.1,3.1,0.3,4.4,1.3
	c1,0.9,1.5,2.1,1.5,3.4l-3.1,0.1c-0.1-0.7-0.4-1.3-0.9-1.7c-0.6-0.4-1.3-0.6-2-0.5c-0.8-0.1-1.5,0.1-2.1,0.6c-0.3,0.2-0.5,0.6-0.5,1
	c0,0.4,0.2,0.7,0.5,0.9c0.9,0.5,1.9,0.9,2.9,1c1.2,0.2,2.3,0.6,3.4,1.1c0.7,0.4,1.3,0.9,1.7,1.6c0.9,1.6,0.8,3.4-0.1,5
	c-0.5,0.8-1.2,1.4-2.1,1.7c-1.1,0.4-2.2,0.6-3.4,0.6c-1.6,0.1-3.2-0.4-4.5-1.4C220.2,240.2,219.5,238.8,219.4,237.3z"/>
<path class="st6" d="M243.4,237.3l3.1-0.3c0.1,0.9,0.5,1.6,1.1,2.2c0.6,0.5,1.4,0.8,2.3,0.7c0.8,0.1,1.6-0.2,2.3-0.6
	c0.5-0.4,0.8-0.9,0.8-1.5c0-0.3-0.1-0.7-0.3-0.9c-0.3-0.3-0.7-0.6-1.1-0.7c-0.4-0.1-1.2-0.4-2.5-0.7c-1.3-0.2-2.5-0.8-3.5-1.5
	c-0.9-0.8-1.4-1.9-1.4-3.1c0-0.8,0.2-1.6,0.7-2.2c0.5-0.7,1.1-1.2,1.9-1.6c1-0.4,2-0.6,3.1-0.5c1.6-0.1,3.1,0.3,4.4,1.3
	c1,0.9,1.5,2.1,1.5,3.4l-3.1,0.1c-0.1-0.7-0.4-1.3-0.9-1.7c-0.6-0.4-1.3-0.6-2-0.5c-0.7,0-1.5,0.1-2.1,0.6c-0.3,0.2-0.5,0.6-0.5,1
	c0,0.4,0.2,0.7,0.5,0.9c0.9,0.5,1.9,0.9,2.9,1c1.2,0.2,2.3,0.6,3.4,1.1c0.7,0.4,1.3,0.9,1.7,1.6c0.9,1.6,0.8,3.4-0.1,5
	c-0.5,0.8-1.2,1.4-2.1,1.7c-1.1,0.4-2.2,0.6-3.4,0.6c-1.6,0.1-3.2-0.4-4.5-1.4C244.2,240.2,243.5,238.8,243.4,237.3z"/>
<path class="st6" d="M274.4,242.3H271l-1.3-3.6h-6.2l-1.3,3.5h-3.3l6-15.5h3.3L274.4,242.3L274.4,242.3z M268.6,236.2l-2.1-5.7
	l-2.1,5.7H268.6z"/>
<polygon class="st6" points="277.8,242.3 277.8,226.8 280.9,226.8 287.2,237.2 287.2,226.8 290.1,226.8 290.1,242.3 287,242.3 
	280.7,232.1 280.7,242.3 "/>
<path class="st6" d="M309.2,242.3h-3.4l-1.3-3.6h-6.2l-1.3,3.5h-3.3l6-15.5h3.3L309.2,242.3L309.2,242.3L309.2,242.3z M303.5,236.2
	l-2.2-5.7l-2.1,5.7H303.5z"/>
<rect x="228.9" y="419.6" class="st7" width="3.1" height="15.5"/>
<polygon class="st6" points="235,435.1 235,419.6 238,419.6 244.4,430 244.4,419.6 247.3,419.6 247.3,435.1 244.2,435.1 
	237.9,424.9 237.9,435.1 "/>
<path class="st6" d="M168.9,461l2.2,2.3c-1,1.1-2.4,1.9-3.9,2.2c-3.4,0.3-6.7-1.8-7.6-5.1c-0.5-2.1-0.1-4.2,1-6
	c0.9-2,2.6-3.5,4.6-4.3c1.9-0.6,3.9-0.4,5.6,0.6c1.5,0.8,2.7,2.1,3.2,3.7c0.3,1.1,0.3,2.2,0,3.3l-3.1-0.8c0.5-1.5-0.2-3.1-1.6-3.8
	c-0.9-0.5-2.1-0.6-3.1-0.2c-1.3,0.6-2.3,1.7-2.9,3.1c-0.8,1.2-1.2,2.7-1,4.2c0.2,1,0.9,1.9,1.8,2.4c0.7,0.4,1.5,0.5,2.3,0.3
	C167.6,462.4,168.4,461.8,168.9,461z"/>
<path class="st6" d="M173.8,461.1c0.5-1.3,1.2-2.4,2.2-3.4c0.6-0.6,1.4-1.1,2.2-1.4c0.8-0.3,1.6-0.5,2.4-0.5c1.1,0,2.3,0.3,3.3,0.7
	c1.9,0.7,3.4,2.2,4.2,4.1c1.2,4.3-0.8,8.8-4.6,10.9c-4,1.4-8.3-0.5-10.1-4.3C172.7,465.2,172.8,463,173.8,461.1L173.8,461.1z
	 M176.9,462.3c-0.7,1.3-0.8,2.8-0.4,4.1c0.8,2.2,3.2,3.3,5.4,2.5c0.1,0,0.2-0.1,0.3-0.1c1.3-0.7,2.2-1.9,2.7-3.3
	c0.6-1.2,0.8-2.7,0.5-4.1c-0.4-1.1-1.2-2-2.3-2.4c-1.1-0.5-2.3-0.5-3.4,0C178.3,459.8,177.3,460.9,176.9,462.3L176.9,462.3
	L176.9,462.3z"/>
<path class="st6" d="M187,474.8l4-15l6.4,1.7c1.2,0.3,2.3,0.7,3.4,1.3c0.7,0.5,1.1,1.1,1.4,1.9c0.2,0.8,0.2,1.7,0,2.5
	c-0.2,1-0.9,1.9-1.7,2.5c-1,0.6-2.2,0.8-3.3,0.6c0.5,0.5,0.9,1.1,1.3,1.7c0.4,0.9,0.8,1.9,1,2.9l1,3.4l-3.6-1l-1.3-3.8
	c-0.3-0.9-0.6-1.8-1-2.6c-0.2-0.3-0.4-0.6-0.7-0.9c-0.5-0.3-1-0.5-1.5-0.6l-0.6-0.2l-1.6,6.2l-3.1-0.8L187,474.8z M192.3,466.9
	l2.2,0.6c0.9,0.3,1.8,0.5,2.8,0.5c0.4,0,0.7-0.2,1-0.4c0.3-0.3,0.5-0.6,0.6-1c0.1-0.4,0.1-0.9-0.1-1.3c-0.2-0.4-0.6-0.7-1-0.9
	c-0.2-0.1-1-0.3-2.2-0.6l-2.4-0.6L192.3,466.9z"/>
<path class="st6" d="M202.1,478.9l2.5-15.3l4.9,0.8c1.2,0.1,2.4,0.4,3.6,0.8c0.8,0.4,1.5,1,1.9,1.9c0.5,1,0.6,2.1,0.4,3.1
	c-0.1,0.8-0.4,1.6-0.9,2.3c-0.4,0.5-0.9,1-1.5,1.3c-0.5,0.3-1.1,0.4-1.7,0.5c-1.1,0-2.2-0.1-3.2-0.3l-2-0.3l-0.9,5.8L202.1,478.9
	L202.1,478.9L202.1,478.9z M207.3,466.7l-0.7,4.4l1.7,0.3c0.8,0.2,1.6,0.2,2.5,0.1c0.4-0.1,0.8-0.3,1.1-0.6c0.3-0.3,0.5-0.7,0.6-1.1
	c0.1-0.5,0-1-0.3-1.5c-0.3-0.4-0.7-0.7-1.1-0.9c-0.7-0.2-1.5-0.4-2.2-0.5L207.3,466.7z"/>
<path class="st6" d="M216.1,473.9c0.1-1.4,0.4-2.7,1-3.9c0.4-0.8,0.9-1.5,1.6-2c0.6-0.6,1.3-1,2.1-1.3c1.1-0.4,2.2-0.5,3.4-0.4
	c2.1,0,4,1,5.3,2.5c2.5,3.6,2.2,8.5-0.8,11.8c-3.3,2.6-8,2.3-10.9-0.7C216.5,478.1,215.9,476,216.1,473.9L216.1,473.9z M219.4,474
	c-0.2,1.4,0.1,2.9,1,4.1c1.4,1.8,4.1,2.1,5.9,0.6c0.1-0.1,0.2-0.1,0.2-0.2c1-1.1,1.5-2.5,1.5-4c0.2-1.4-0.1-2.9-0.9-4.1
	c-1.6-1.8-4.3-2-6.1-0.5c0,0-0.1,0.1-0.1,0.1C219.8,471.1,219.3,472.5,219.4,474L219.4,474z"/>
<path class="st6" d="M233.1,482.8l-0.5-15.5l6.6-0.2c1.2-0.1,2.4,0,3.6,0.3c0.8,0.2,1.4,0.8,1.8,1.4c0.5,0.7,0.7,1.5,0.8,2.4
	c0.1,1-0.3,2.1-0.9,2.9c-0.8,0.9-1.9,1.4-3.1,1.5c0.6,0.3,1.2,0.7,1.7,1.2c0.7,0.8,1.3,1.6,1.8,2.5l2,3l-3.7,0.1l-2.3-3.3
	c-0.5-0.8-1.1-1.5-1.7-2.2c-0.3-0.3-0.6-0.5-1-0.6c-0.5-0.1-1.1-0.2-1.6-0.1h-0.6l0.2,6.5L233.1,482.8L233.1,482.8z M235.9,473.8
	l2.3-0.1c0.9,0,1.9-0.1,2.8-0.3c0.4-0.1,0.7-0.4,0.9-0.7c0.2-0.4,0.3-0.8,0.3-1.2c0-0.5-0.1-0.9-0.4-1.2c-0.3-0.3-0.7-0.5-1.2-0.6
	c-0.3,0-1,0-2.3,0l-2.4,0.1L235.9,473.8z"/>
<polygon class="st6" points="248.7,482.4 246.7,467.1 258.1,465.6 258.4,468.2 250.1,469.3 250.6,472.7 258.3,471.7 258.6,474.3 
	250.9,475.3 251.5,479.4 260,478.3 260.4,480.9 "/>
<path class="st6" d="M267,474.8l2.9-1c0.3,0.8,0.9,1.5,1.6,1.9c0.7,0.4,1.6,0.4,2.4,0.2c0.8-0.1,1.5-0.5,2-1.1
	c0.4-0.5,0.5-1,0.4-1.6c-0.1-0.3-0.3-0.6-0.5-0.9c-0.4-0.2-0.8-0.4-1.2-0.4c-0.4,0-1.2-0.1-2.6-0.1c-1.3,0.1-2.6-0.2-3.8-0.7
	c-1.1-0.6-1.8-1.5-2.1-2.7c-0.2-0.8-0.1-1.6,0.1-2.3c0.3-0.8,0.8-1.5,1.5-2c0.9-0.6,1.8-1,2.8-1.2c1.5-0.5,3.1-0.4,4.5,0.3
	c1.2,0.6,2,1.7,2.3,3l-3.1,0.8c-0.2-0.6-0.6-1.2-1.2-1.5c-0.6-0.3-1.4-0.3-2-0.1c-0.7,0.1-1.4,0.5-1.9,1c-0.2,0.3-0.4,0.7-0.3,1
	s0.3,0.7,0.7,0.8c1,0.3,2,0.4,3.1,0.4c1.2,0,2.4,0.1,3.5,0.3c0.8,0.2,1.5,0.6,2,1.1c0.6,0.6,1,1.4,1.2,2.3c0.2,0.9,0.1,1.8-0.1,2.6
	c-0.3,0.9-0.9,1.6-1.6,2.1c-1,0.6-2,1.1-3.1,1.3c-1.5,0.5-3.2,0.4-4.7-0.3C268.4,477.4,267.4,476.2,267,474.8z"/>
<path class="st6" d="M296.1,471.5l-3.2,1.1l-2.4-2.9l-5.9,2l-0.1,3.8l-3.1,1.1l0.7-16.6l3.1-1.1L296.1,471.5L296.1,471.5z
	 M288.7,467.5l-3.9-4.7l-0.1,6.1L288.7,467.5z"/>
<polygon class="st6" points="297.6,470.8 291.2,456.7 293.9,455.5 304,462.2 299.7,452.8 302.4,451.6 308.8,465.7 306,467 
	296,460.4 300.3,469.6 "/>
<path class="st6" d="M307.4,458c-0.7-1.1-1.2-2.4-1.4-3.8c-0.1-0.9,0-1.7,0.2-2.6c0.2-0.8,0.5-1.6,1-2.2c0.7-0.9,1.6-1.7,2.6-2.2
	c1.7-1.1,3.8-1.5,5.8-0.9c4.1,1.6,6.6,5.8,6,10.2c-1.2,4-5.3,6.4-9.4,5.5C310,461.3,308.3,459.9,307.4,458L307.4,458z M310.1,456.2
	c0.6,1.3,1.7,2.3,3.1,2.8c1.1,0.4,2.4,0.2,3.4-0.4c1-0.6,1.8-1.6,2-2.7c0.2-1.4-0.2-2.9-1-4.1c-0.6-1.3-1.7-2.3-3.1-2.8
	c-1.1-0.4-2.4-0.2-3.3,0.4c-1,0.6-1.8,1.6-2,2.7C308.9,453.6,309.2,455.1,310.1,456.2z"/>
<path class="st2" d="M52.5,416.2l-2-5.4l4.8-4.2l-3.7-9.9l-6.4,0l-2-5.3l28.2,0.4l2,5.3L52.5,416.2z M58.9,403.4l7.8-6.8l-10.4,0
	L58.9,403.4z"/>
<path class="st2" d="M56.5,424.8l23-12.8l5.4,9.8c1.1,1.8,1.9,3.7,2.4,5.7c0.2,1.3-0.1,2.7-0.7,3.9c-0.7,1.3-1.8,2.4-3.1,3.1
	c-1.5,0.9-3.3,1.2-5.1,0.9c-1.9-0.5-3.6-1.7-4.7-3.4c0,1.2-0.2,2.4-0.6,3.5c-0.6,1.6-1.4,3.2-2.3,4.7l-2.9,5.3L65,440l3.2-6.1
	c0.8-1.4,1.4-2.9,2-4.3c0.2-0.6,0.3-1.3,0.2-1.9c-0.2-0.9-0.6-1.7-1-2.5l-0.5-1l-9.7,5.3L56.5,424.8L56.5,424.8z M72.4,422.1
	l1.9,3.4c0.7,1.4,1.6,2.8,2.6,4c0.5,0.4,1.1,0.7,1.7,0.8c0.7,0.1,1.4-0.1,2-0.5c0.7-0.4,1.2-0.9,1.5-1.6c0.2-0.7,0.2-1.5-0.1-2.2
	c-0.2-0.4-0.8-1.5-1.8-3.4l-2-3.6L72.4,422.1z"/>
<path class="st2" d="M88.8,456.9l3.5-2.7l7,9l-8.3,6.5c-1.9-0.3-3.6-1-5.2-2c-1.9-1.1-3.6-2.6-4.9-4.3c-1.6-1.9-2.6-4.3-3.1-6.7
	c-0.3-2.3,0-4.6,1.1-6.7c1.1-2.2,2.7-4.1,4.6-5.5c2-1.6,4.3-2.7,6.8-3.1c2.4-0.4,4.8-0.1,7,1c1.9,1,3.6,2.4,4.9,4.2
	c2,2.6,3.1,5,3.1,7.3c0,2.3-0.8,4.5-2.3,6.3l-4.1-3.6c0.8-1,1.2-2.2,1.1-3.5c-0.1-1.4-0.6-2.7-1.5-3.7c-1.2-1.7-3-2.8-5.1-3
	c-2-0.2-4.2,0.6-6.4,2.4c-2.5,1.9-3.9,3.9-4.3,6c-0.4,2,0.2,4.1,1.5,5.8c0.7,0.9,1.6,1.6,2.6,2.2c0.9,0.6,2,1,3.1,1.3l2.6-2
	L88.8,456.9z"/>
<polygon class="st2" points="96.4,480.1 113.5,460.1 128.3,472.8 125.4,476.1 114.7,467 110.9,471.4 120.9,479.9 118,483.3 
	108,474.8 103.4,480.2 114.5,489.7 111.6,493.1 "/>
<polygon class="st2" points="120.3,500.1 134.2,477.7 138.6,480.5 138.5,501.2 147.8,486.2 152,488.8 138.1,511.1 133.6,508.3 
	133.6,488 124.5,502.7 "/>
<polygon class="st2" points="154.4,519.2 163,499.1 155.9,496 157.6,492 176.8,500.2 175.1,504.3 167.9,501.2 159.3,521.3 "/>
<rect x="169.4" y="513.1" transform="matrix(0.3138 -0.9495 0.9495 0.3138 -364.4546 527.1931)" class="st8" width="26.3" height="5.3"/>
<polygon class="st2" points="192.2,532.1 196.7,506.2 201.8,507.1 209.5,526.3 212.5,508.9 217.3,509.8 212.8,535.7 207.6,534.8 
	200,515.9 197.1,533 "/>
<path class="st2" d="M223.8,524.1c-0.1-2.3,0.3-4.6,1.1-6.8c0.6-1.4,1.4-2.6,2.4-3.7c0.9-1,2.1-1.9,3.4-2.4c1.8-0.8,3.7-1.1,5.6-1.1
	c3.5-0.2,6.9,1,9.4,3.5c2.4,2.4,3.6,5.7,3.7,10c0.1,4.3-1,7.6-3.3,10c-5.2,4.9-13.2,5-18.6,0.3C225,531.6,223.8,528.3,223.8,524.1
	L223.8,524.1z M229.2,523.8c0,3,0.8,5.2,2.2,6.8c2.7,2.9,7.2,3,10.1,0.3c0.1-0.1,0.3-0.3,0.4-0.4c1.4-1.6,2-3.9,1.9-6.9
	c-0.1-3.1-0.7-5.3-2.1-6.7c-1.4-1.5-3.3-2.2-5.3-2.1c-2,0-3.9,0.8-5.3,2.3C229.8,518.5,229.2,520.8,229.2,523.8z"/>
<path class="st2" d="M257.5,527.5l5-1.3c0.4,1.4,1.3,2.6,2.5,3.5c1.2,0.7,2.6,0.9,4,0.6c1.4-0.1,2.6-0.7,3.6-1.7
	c0.7-0.7,1-1.7,0.9-2.7c-0.1-0.6-0.4-1.1-0.8-1.5c-0.6-0.4-1.3-0.7-2-0.8c-0.6-0.1-2.1-0.3-4.4-0.4c-2.2,0-4.4-0.6-6.3-1.6
	c-1.8-1.1-2.9-2.8-3.2-4.9c-0.2-1.3,0-2.7,0.5-3.9c0.6-1.3,1.6-2.4,2.8-3.2c1.5-0.9,3.2-1.5,5-1.8c3.2-0.5,5.8-0.2,7.7,1
	c1.9,1.2,3.2,3.1,3.6,5.3l-5.2,1c-0.3-1.1-1-2-1.9-2.6c-1.1-0.5-2.3-0.6-3.4-0.3c-1.3,0.1-2.5,0.7-3.4,1.5c-0.5,0.5-0.7,1.1-0.6,1.8
	c0.1,0.6,0.5,1.1,1,1.5c0.8,0.5,2.4,0.8,5.1,0.9c2,0.1,4,0.4,6,0.9c1.3,0.4,2.4,1.2,3.3,2.2c1.9,2.4,2.3,5.5,1.2,8.3
	c-0.6,1.5-1.7,2.7-3.1,3.5c-1.7,1-3.6,1.6-5.5,1.9c-3.3,0.5-5.9,0.2-7.9-1C259.6,532.2,258.1,530,257.5,527.5z"/>
<path class="st2" d="M295.1,500.6l5.1-1.6l5.1,15.8c0.6,1.6,0.9,3.3,1,5c0,1.6-0.5,3.1-1.5,4.4c-1.2,1.4-2.8,2.5-4.7,3
	c-2.1,0.8-4.4,0.7-6.4-0.2c-1.8-0.9-3.1-2.8-4-5.4l4.6-2.1c0.3,1,0.9,2,1.6,2.8c1.5,1.1,3.5,0.8,4.6-0.6c0.1-0.2,0.2-0.4,0.3-0.5
	c0.2-0.8,0-2.2-0.6-4.2L295.1,500.6z"/>
<path class="st2" d="M307.9,495.5l4.8-2.4L319,506c0.6,1.3,1.3,2.6,2.1,3.9c0.6,0.8,1.6,1.4,2.6,1.6c1.2,0.2,2.5,0,3.6-0.7
	c1.1-0.5,2-1.3,2.6-2.3c0.4-0.8,0.5-1.8,0.2-2.6c-0.5-1.4-1.1-2.8-1.8-4.1l-6.5-13l4.8-2.4l6.1,12.4c1.1,2,1.9,4,2.6,6.2
	c0.3,1.2,0.3,2.5,0,3.7c-0.3,1.2-1,2.4-1.8,3.3c-1.2,1.2-2.6,2.3-4.2,3c-1.7,0.9-3.6,1.5-5.5,1.8c-1.3,0.1-2.6-0.1-3.8-0.7
	c-1-0.4-1.9-1.1-2.6-2c-1.3-1.8-2.5-3.7-3.4-5.8L307.9,495.5z"/>
<polygon class="st2" points="348.7,503.3 332.6,482.5 336.6,479.3 356,486.6 345.2,472.7 349.1,469.6 365.2,490.4 361,493.7 
	342,486.6 352.6,500.2 "/>
<rect x="364.5" y="457.8" transform="matrix(0.7259 -0.6878 0.6878 0.7259 -223.3079 381.6057)" class="st8" width="5.3" height="26.3"/>
<path class="st2" d="M375.6,463.3c-1.9-1.4-3.4-3.1-4.6-5.1c-0.7-1.3-1.1-2.7-1.3-4.2c-0.2-1.4-0.1-2.8,0.2-4.1
	c0.5-1.9,1.5-3.6,2.7-5.1c2-2.8,5.1-4.7,8.6-5.1c3.3-0.3,6.7,0.8,10.1,3.5c3.4,2.7,5.3,5.6,5.7,8.9c0.4,3.4-0.6,6.9-2.9,9.5
	c-2,2.8-5.1,4.7-8.6,5.1C382.2,467,378.9,465.9,375.6,463.3L375.6,463.3z M378.8,458.8c2.3,1.8,4.5,2.7,6.6,2.6
	c3.9-0.3,6.9-3.7,6.5-7.7c0-0.2,0-0.4-0.1-0.6c-0.4-2-1.7-4-4.1-5.9c-2.4-1.9-4.5-2.7-6.5-2.6c-4.1,0.4-7,4.1-6.6,8.1
	c0,0.1,0,0.1,0,0.2C375.1,455,376.4,457,378.8,458.8L378.8,458.8z"/>
<path class="st2" d="M407.4,442.1l-23-12.9l5.5-9.8c0.9-1.9,2.1-3.5,3.6-5c1-0.9,2.3-1.4,3.7-1.5c1.5-0.1,2.9,0.3,4.2,1
	c1.6,0.8,2.8,2.2,3.4,3.9c0.5,1.9,0.4,3.9-0.4,5.7c1-0.6,2.1-1.1,3.3-1.4c1.7-0.3,3.5-0.5,5.2-0.5l6-0.3l-3.1,5.5l-6.9,0.5
	c-1.6,0.1-3.2,0.3-4.8,0.6c-0.6,0.1-1.2,0.4-1.7,0.9c-0.6,0.6-1.2,1.4-1.6,2.2l-0.5,1l9.6,5.4L407.4,442.1L407.4,442.1z
	 M396.8,430.1l1.9-3.4c0.9-1.4,1.5-2.8,2-4.3c0.1-0.6,0-1.3-0.2-1.8c-0.3-0.6-0.8-1.1-1.5-1.4c-0.7-0.4-1.5-0.6-2.2-0.4
	c-0.8,0.2-1.4,0.6-1.9,1.2c-0.3,0.4-0.9,1.5-2,3.3l-2,3.6L396.8,430.1z"/>
<path class="st2" d="M413.9,410.8l1.4-5c1.4,0.4,2.9,0.2,4.2-0.4c1.2-0.7,2.1-1.8,2.5-3.2c0.6-1.2,0.7-2.6,0.4-4
	c-0.3-1-1-1.8-1.9-2.1c-0.5-0.2-1.1-0.2-1.7-0.1c-0.7,0.3-1.3,0.8-1.7,1.4c-0.4,0.5-1.3,1.7-2.6,3.5c-1.1,1.9-2.7,3.5-4.6,4.6
	c-3.1,1.7-6.9,0.8-8.9-2c-0.8-1.2-1.3-2.6-1.3-4c0-1.8,0.3-3.5,1-5.1c1.2-3.1,2.7-5.1,4.7-6.2c2-1,4.3-1.2,6.4-0.4l-1.7,5
	c-1.1-0.3-2.2-0.2-3.3,0.3c-1,0.7-1.7,1.7-2,2.8c-0.5,1.2-0.7,2.5-0.4,3.7c0.1,0.6,0.6,1.1,1.2,1.4c0.6,0.2,1.2,0.2,1.8-0.2
	c0.8-0.4,1.9-1.7,3.4-3.9c1.1-1.7,2.4-3.3,3.8-4.7c1-0.9,2.2-1.5,3.5-1.8c3-0.4,6,0.8,7.8,3.2c0.9,1.3,1.5,2.8,1.5,4.4
	c0,2-0.4,3.9-1.1,5.7c-1.2,3.1-2.8,5.2-4.9,6.4C419,411.3,416.3,411.6,413.9,410.8z"/>
<path class="st2" d="M68.5,288.4l-1.2,5.6L61,295l-2.3,10.3l5.4,3.4l-1.2,5.5l-23.4-15.7l1.2-5.5L68.5,288.4L68.5,288.4L68.5,288.4z
	 M56.3,295.7l-10.3,1.4l8.8,5.6L56.3,295.7z"/>
<path class="st2" d="M62.6,278.5l1.3-5c1.4,0.4,2.9,0.2,4.3-0.4c1.2-0.7,2.1-1.9,2.5-3.2c0.6-1.2,0.7-2.7,0.3-4
	c-0.3-1-1-1.7-1.9-2.1c-0.5-0.2-1.1-0.2-1.7,0c-0.7,0.3-1.3,0.8-1.7,1.4c-0.4,0.5-1.3,1.7-2.6,3.6c-1.1,1.9-2.7,3.5-4.5,4.7
	c-3.1,1.7-6.9,0.8-8.9-2c-0.8-1.2-1.3-2.6-1.3-4c0-1.8,0.3-3.5,1-5.2c1.2-3.1,2.7-5.2,4.7-6.2c2-1,4.3-1.2,6.3-0.4l-1.6,5.1
	c-1.1-0.3-2.2-0.2-3.2,0.3c-1,0.7-1.7,1.7-2,2.8c-0.5,1.2-0.7,2.5-0.4,3.7c0.2,0.6,0.6,1.1,1.2,1.4c0.6,0.2,1.2,0.1,1.8-0.2
	c0.8-0.4,1.9-1.7,3.4-3.9c1.1-1.7,2.4-3.3,3.8-4.8c1-0.9,2.2-1.5,3.5-1.8c3-0.4,6,0.8,7.8,3.2c0.9,1.2,1.5,2.8,1.5,4.4
	c0,2-0.4,3.9-1.1,5.7c-1.2,3.1-2.8,5.2-4.8,6.4C67.7,279.1,65.1,279.3,62.6,278.5z"/>
<path class="st2" d="M71.2,246.8c-2-1.1-3.7-2.7-5.1-4.5c-0.8-1.2-1.4-2.6-1.8-4c-0.4-1.4-0.5-2.8-0.2-4.1c0.3-1.9,1-3.8,2-5.4
	c1.7-3.1,4.5-5.3,7.9-6.1c3.3-0.7,6.7,0,10.4,2.2c3.7,2.2,5.9,4.9,6.7,8.1c0.8,3.4,0.2,6.9-1.7,9.8c-1.7,3.1-4.5,5.3-7.9,6.1
	C78.2,249.7,74.8,248.9,71.2,246.8L71.2,246.8z M73.9,242c2.6,1.5,4.8,2.1,6.9,1.7c2-0.4,3.7-1.6,4.7-3.3c1.1-1.7,1.3-3.8,0.7-5.6
	c-0.6-1.9-2.2-3.7-4.8-5.3c-2.6-1.6-4.9-2.2-6.8-1.8c-2,0.4-3.7,1.6-4.6,3.4c-1.1,1.7-1.4,3.8-0.8,5.7
	C69.7,238.7,71.3,240.4,73.9,242z"/>
<path class="st2" d="M106.1,205.2l4.7-2.7c1.5,2.1,2.2,4.7,2,7.2c-0.3,2.5-1.4,4.8-3.2,6.6c-2.1,2.5-5.2,3.9-8.4,4
	c-3.3,0.1-6.5-1.3-9.5-4.1c-3.2-2.9-5-6.1-5.3-9.4c-0.3-3.4,0.9-6.7,3.3-9.1c1.9-2.2,4.5-3.6,7.4-3.9c1.9-0.1,3.8,0.4,5.4,1.3
	l-2.6,4.7c-1.1-0.7-2.4-0.9-3.7-0.7c-1.3,0.2-2.4,0.9-3.3,1.9c-1.3,1.3-1.9,3.1-1.6,4.9c0.2,1.8,1.5,3.8,3.8,5.9s4.6,3.4,6.5,3.4
	c1.8,0.1,3.6-0.7,4.7-2c0.9-1,1.4-2.3,1.5-3.6C107.7,208,107.1,206.5,106.1,205.2z"/>
<rect x="115.8" y="176.7" transform="matrix(0.7762 -0.6305 0.6305 0.7762 -93.1903 117.1606)" class="st8" width="5.3" height="26.3"/>
<path class="st2" d="M157.6,179.6l-5,2.9l-5-4.1l-9.1,5.3l1.1,6.2l-4.9,2.9l-4.3-27.9l4.9-2.8L157.6,179.6z M143.9,175.6l-8-6.6
	l1.8,10.2L143.9,175.6z"/>
<path class="st2" d="M177.3,160.8l5.4-0.4c0.4,2.5,0,5.1-1.3,7.4c-3.3,4.9-9.6,6.7-15,4.4c-3-1.4-5.2-4-6.8-7.8
	c-1.6-4.1-1.9-7.6-0.6-10.7c1.2-3.1,3.8-5.6,6.9-6.7c2.6-1.2,5.6-1.3,8.3-0.3c1.7,0.8,3.2,2,4.3,3.5l-4.4,3.1
	c-1.5-2.3-4.3-3.1-6.8-2c-1.7,0.6-3,2-3.6,3.7c-0.6,1.8-0.3,4.1,0.9,7c1.2,3.1,2.7,5.1,4.3,5.9c1.6,0.9,3.4,0.9,5.1,0.2
	c1.2-0.5,2.3-1.4,2.9-2.6C177.4,164,177.6,162.4,177.3,160.8z"/>
<rect x="192.5" y="139.3" transform="matrix(0.9741 -0.226 0.226 0.9741 -29.3956 48.0419)" class="st8" width="5.3" height="26.3"/>
<path class="st2" d="M209.1,149.4c-0.2-2.3,0-4.6,0.7-6.8c0.5-1.4,1.2-2.6,2.2-3.8c0.9-1.1,2-2,3.2-2.6c1.7-0.9,3.6-1.3,5.6-1.4
	c3.4-0.4,6.9,0.7,9.5,2.9c2.5,2.2,3.9,5.5,4.2,9.8c0.3,4.3-0.6,7.7-2.7,10.2c-4.9,5.2-12.9,5.7-18.5,1.3
	C210.8,156.8,209.4,153.6,209.1,149.4L209.1,149.4z M214.6,148.9c0.2,3,1,5.2,2.5,6.6c1.4,1.4,3.4,2.1,5.4,1.9c2-0.1,3.8-1.1,5-2.7
	c1.2-1.6,1.8-3.9,1.6-7c-0.2-3-1-5.2-2.5-6.6c-3-2.7-7.7-2.4-10.4,0.6c-0.1,0.1-0.1,0.1-0.1,0.2
	C214.9,143.6,214.4,145.9,214.6,148.9z"/>
<polygon class="st2" points="245.4,160.6 248.5,134.5 253.6,135.1 262.2,153.9 264.3,136.4 269.2,137 266.1,163.1 260.8,162.5 
	252.3,144.2 250.3,161.2 "/>
<path class="st2" d="M302.9,173.1l-5.5-1.7L297,165l-10-3.2l-3.9,5.1l-5.4-1.7l17.7-22l5.4,1.7L302.9,173.1L302.9,173.1L302.9,173.1
	z M296.7,160.2l-0.5-10.4l-6.3,8.2L296.7,160.2z"/>
<polygon class="st2" points="313.4,178.2 323,158.6 316,155.2 317.9,151.2 336.7,160.4 334.7,164.4 327.8,161 318.1,180.6 "/>
<polygon class="st2" points="333,188.9 348.7,168 352.9,171.2 339.9,188.5 350.5,196.4 347.8,200 "/>
<polygon class="st2" points="355,206 373.9,187.8 387.5,201.8 384.3,204.9 374.4,194.6 370.2,198.7 379.4,208.2 376.2,211.3 
	367,201.8 361.9,206.8 372.1,217.3 368.9,220.4 "/>
<polygon class="st2" points="378.9,233 396.5,220.1 392,213.8 395.5,211.2 407.9,228.1 404.3,230.7 399.7,224.4 382,237.3 "/>
<rect x="390.3" y="245.1" transform="matrix(0.8841 -0.4673 0.4673 0.8841 -69.0255 217.2673)" class="st8" width="26.3" height="5.3"/>
<path class="st2" d="M412.8,278.5l0.1,5.4c-2.6,0.3-5.1-0.3-7.3-1.7c-4.7-3.6-6.2-10-3.6-15.3c1.5-2.9,4.3-5,8.1-6.4
	c4.1-1.4,7.7-1.4,10.7-0.1c3.1,1.4,5.4,4.1,6.3,7.3c1,2.7,1,5.7-0.2,8.3c-0.9,1.7-2.1,3.1-3.7,4.1l-2.9-4.6c2.3-1.3,3.3-4.2,2.4-6.7
	c-0.5-1.7-1.8-3.1-3.5-3.8c-1.7-0.7-4.1-0.5-7,0.5c-3.2,1.1-5.2,2.4-6.1,4c-0.9,1.5-1.1,3.4-0.5,5.1c0.4,1.3,1.3,2.3,2.4,3
	C409.5,278.5,411.1,278.8,412.8,278.5z"/>
<path class="st2" d="M412,319.7l-1-5.7l5.5-3.3l-1.8-10.4l-6.2-1.1l-1-5.5l27.7,5.5l1,5.5L412,319.7L412,319.7z M420.6,308.2l9-5.3
	l-10.2-1.8L420.6,308.2z"/>
<radialGradient id="SVGID_1_" cx="236.2736" cy="88.07" r="48.3993" gradientTransform="matrix(1 0 0 1 0 -24)" gradientUnits="userSpaceOnUse">
	<stop  offset="0" style="stop-color:#FED500"/>
	<stop  offset="1" style="stop-color:#FCB918"/>
</radialGradient>
<polygon class="st9" points="236.3,28.4 244.3,55.7 270.5,55.7 249.3,72.5 257.4,99.7 236.3,82.8 215.1,99.7 223.3,72.5 202.1,55.7 
	228.2,55.7 "/>
<path class="st10" d="M236.6,28.4l8,27.1h25.9h0.9l-0.7,0.5l-21,16.6l8.1,27l0.3,0.9l-0.8-0.6l-21-16.7l-20.9,16.7l-0.8,0.6l0.3-0.9
	l8.1-27l-21-16.7l-0.7-0.5h0.9H228l8-27.1l0.3-1L236.6,28.4L236.6,28.4z M244,55.8l-7.7-26.3l-7.7,26.3l-0.1,0.2h-0.2H203l20.5,16.3
	l0.2,0.1l-0.1,0.2l-7.8,26.3l20.4-16.3l0.2-0.2l0.2,0.2l20.4,16.3L249,72.6v-0.2l0.2-0.1L269.6,56h-25.3h-0.2L244,55.8z"/>
<radialGradient id="SVGID_2_" cx="358.8805" cy="124.4856" r="21.3926" gradientTransform="matrix(0.9397 0.342 -0.3249 0.8927 32.4235 -142.9455)" gradientUnits="userSpaceOnUse">
	<stop  offset="0" style="stop-color:#FED500"/>
	<stop  offset="1" style="stop-color:#FCB918"/>
</radialGradient>
<polygon class="st11" points="336.8,71.9 335.4,88.2 349.4,93.7 334.5,98.2 333.1,114.5 325.4,101 310.5,105.6 320.6,92.7 
	312.8,79.2 326.8,84.8 "/>
<path class="st10" d="M337.1,71.9l-1.4,16l13.8,5.4l0.8,0.3l-0.8,0.2l-14.7,4.5l-1.4,16l-0.1,1l-0.5-0.8l-7.6-13.2l-14.6,4.5
	l-0.9,0.3l0.6-0.8l10-12.7l-7.7-13.2l-0.5-0.8l0.8,0.3l13.8,5.5l9.9-12.8l0.6-0.8L337.1,71.9L337.1,71.9L337.1,71.9z M335.1,88.1
	l1.4-15.3L327.1,85l-0.1,0.2l-0.2-0.1l-13.2-5.3l7.4,12.7l0.1,0.2l-0.1,0.2l-9.5,12.1l13.9-4.3l0.2-0.1l0.1,0.2l7.3,12.6l1.3-15.3
	v-0.2l0.2-0.1l14.1-4.2l-13.2-5.2l-0.2-0.1L335.1,88.1z"/>
<radialGradient id="SVGID_3_" cx="443.3752" cy="154.9927" r="18.6218" gradientTransform="matrix(0.81 0.59 -0.62 0.85 144.87 -257.06)" gradientUnits="userSpaceOnUse">
	<stop  offset="0" style="stop-color:#FED500"/>
	<stop  offset="1" style="stop-color:#FCB918"/>
</radialGradient>
<polygon class="st12" points="419.8,118.7 414.4,134.1 426.6,142.9 411.1,143.6 405.7,159 401.5,144 386,144.8 399,134.8 
	394.7,119.9 406.9,128.7 "/>
<path class="st10" d="M420.1,118.8l-5.3,15.2l12,8.6l0.7,0.5h-0.9l-15.3,0.7l-5.3,15.3l-0.3,0.9l-0.3-0.9l-4.1-14.8l-15.3,0.8h-1
	l0.8-0.6l12.8-9.9l-4.2-14.8l-0.2-0.9l0.7,0.5l12,8.7l12.7-9.9l0.8-0.6L420.1,118.8L420.1,118.8z M414.1,134l5.1-14.4l-12.1,9.4
	l-0.2,0.1l-0.2-0.1l-11.5-8.3l4,14.1l0,0.2l-0.2,0.1l-12.2,9.4l14.6-0.7h0.2l0.1,0.2l3.9,14.1l5-14.5l0.1-0.2h0.2l14.7-0.7
	l-11.5-8.2l-0.2-0.1L414.1,134z"/>
<radialGradient id="SVGID_4_" cx="134.6751" cy="-3936.1482" r="20.6999" gradientTransform="matrix(-0.9455 0.3256 -3.255682e-03 -9.455185e-03 258.8563 9.5894)" gradientUnits="userSpaceOnUse">
	<stop  offset="0" style="stop-color:#FED500"/>
	<stop  offset="1" style="stop-color:#FCB918"/>
</radialGradient>
<polygon class="st13" points="136.8,71.9 138.2,88.2 124.2,93.7 139.1,98.2 140.5,114.5 148.3,101 163.1,105.6 153,92.7 160.8,79.2 
	146.8,84.8 "/>
<path class="st10" d="M137.2,72.9l1.4,15.3v0.2l-0.2,0.1l-13.2,5.2l14,4.3l0.2,0.1v0.2l1.3,15.3l7.2-12.6l0.1-0.2l0.2,0.1l13.9,4.3
	l-9.4-12.1l-0.1-0.2l0.1-0.2l7.4-12.7L146.9,85l-0.2,0.1l-0.1-0.2L137.2,72.9L137.2,72.9z M137.9,88l-1.4-16.1l-0.1-1l0.6,0.8
	l9.9,12.7l13.8-5.5l0.8-0.3l-0.4,0.8l-7.7,13.2l10,12.7l0.6,0.8l-0.9-0.3l-14.6-4.5l-7.6,13.2l-0.5,0.8l-0.1-1l-1.4-16l-14.7-4.5
	l-0.8-0.2l0.8-0.3L137.9,88z"/>
<radialGradient id="SVGID_5_" cx="70.4729" cy="-3941.3489" r="19.9155" gradientTransform="matrix(-0.8192 0.5736 -5.735764e-03 -8.191520e-03 100.4361 61.992)" gradientUnits="userSpaceOnUse">
	<stop  offset="0" style="stop-color:#FED500"/>
	<stop  offset="1" style="stop-color:#FCB918"/>
</radialGradient>
<polygon class="st14" points="53.8,118.7 59.2,134.1 47,142.9 62.5,143.6 67.9,159 72.1,144 87.6,144.8 74.7,134.8 78.9,119.9 
	66.7,128.7 "/>
<path class="st10" d="M54.5,119.5l5.1,14.4l0.1,0.2l-0.2,0.1L48,142.6l14.7,0.7h0.2l0.1,0.2l5,14.5l3.9-14l0.1-0.2h0.2l14.6,0.7
	l-12.2-9.4l-0.2-0.1l0.1-0.2l4-14.1l-11.4,8.3l-0.2,0.1l-0.2-0.1L54.5,119.5z M58.9,134l-5.3-15.2l-0.3-1l0.8,0.6l12.7,9.9l12-8.7
	l0.7-0.5l-0.2,0.9L75,134.7l12.8,9.9l0.8,0.6h-1l-15.3-0.8l-4.1,14.8l-0.3,0.9l-0.3-0.9l-5.3-15.3L47,143.1h-0.9l0.7-0.5L58.9,134z"
	/>
</svg>
